# xmcd CD database file
#
# Track frame offsets:
#	150
#	17470
#	37432
#	56144
#	72777
#	88096
#
# Disc length: 1485 seconds
#
# Revision: 1
# Processed by: cddbd v1.5.1PL0 Copyright (c) Steve Scherf et al.
# Submitted via: CDex 1.51
#
DISCID=4f05cb06
DTITLE=Tony McLoughlin - DemoCD
DYEAR=9999
DGENRE=Blues
TTITLE0=How Blue Can You Get
TTITLE1=The Devil Is A Friend Of Mine
TTITLE2=Red Light
TTITLE3=Don´t Do This Thing
TTITLE4=Glory Bound
TTITLE5=Love Is A Test
EXTD=YEAR: 9999
EXTT0=
EXTT1=
EXTT2=
EXTT3=
EXTT4=
EXTT5=
PLAYORDER=
